<svg xmlns="http://www.w3.org/2000/svg" xmlns:xlink="http://www.w3.org/1999/xlink" viewBox="0 0 430 430" width="430" height="430" preserveAspectRatio="xMidYMid meet" style="width: 100%; height: 100%; transform: translate3d(0px, 0px, 0px); content-visibility: visible;"><defs><clipPath id="__lottie_element_10"><rect width="430" height="430" x="0" y="0"/></clipPath><clipPath id="__lottie_element_12"><path d="M0,0 L430,0 L430,430 L0,430z"/></clipPath><g id="__lottie_element_49"><g transform="matrix(1,0,0,1,215,215)" opacity="1" style="display: block;"><g opacity="1" transform="matrix(1,0,0,1,-7.5,98.25)"><path fill="rgb(255,0,0)" fill-opacity="1" d=" M146.5,-54.25 C146.5,-54.25 146.5,54.25 146.5,54.25 C146.5,54.25 -146.5,54.25 -146.5,54.25 C-146.5,54.25 -146.5,-54.25 -146.5,-54.25 C-146.5,-54.25 146.5,-54.25 146.5,-54.25z"/></g></g></g></defs><g clip-path="url(#__lottie_element_10)"><g clip-path="url(#__lottie_element_12)" transform="matrix(1,0,0,1,0,0)" opacity="1" style="display: block;"><g transform="matrix(1,0,0,1,215,284.9960021972656)" opacity="1" style="display: block;"><g opacity="1" transform="matrix(1,0,0,1,0,0)"><path class="quaternary" fill="rgb(75,179,253)" fill-opacity="1" d=" M139.81500244140625,18.0049991607666 C139.81500244140625,18.0049991607666 139.81500244140625,76.63500213623047 139.81500244140625,76.63500213623047 C139.81500244140625,76.63500213623047 -139.81500244140625,75.58499908447266 -139.81500244140625,75.58499908447266 C-139.81500244140625,75.58499908447266 -139.81500244140625,18.0049991607666 -139.81500244140625,18.0049991607666 C-139.81500244140625,18.0049991607666 -139.5850067138672,17.485000610351562 -139.5850067138672,17.485000610351562 C-139.5850067138672,17.485000610351562 -97.875,-76.63500213623047 -97.875,-76.63500213623047 C-97.875,-76.63500213623047 97.875,-76.63500213623047 97.875,-76.63500213623047 C97.875,-76.63500213623047 139.5850067138672,17.485000610351562 139.5850067138672,17.485000610351562 C139.5850067138672,17.485000610351562 139.81500244140625,18.0049991607666 139.81500244140625,18.0049991607666z"/></g></g><g transform="matrix(1,0,0,1,215,331.5260009765625)" opacity="0.5" style="mix-blend-mode: multiply; display: block;"><g opacity="1" transform="matrix(1,0,0,1,0,0)"><path class="quaternary" fill="rgb(75,179,253)" fill-opacity="1" d=" M139.81500244140625,-29.575000762939453 C139.81500244140625,-29.575000762939453 139.81500244140625,29.575000762939453 139.81500244140625,29.575000762939453 C139.81500244140625,29.575000762939453 -139.81500244140625,28.524999618530273 -139.81500244140625,28.524999618530273 C-139.81500244140625,28.524999618530273 -139.81500244140625,-29.575000762939453 -139.81500244140625,-29.575000762939453 C-139.81500244140625,-29.575000762939453 139.81500244140625,-29.575000762939453 139.81500244140625,-29.575000762939453z"/></g></g><g transform="matrix(1,0,0,1,-35,-35)" opacity="1" style="display: block;"><g opacity="1" transform="matrix(1,0,0,1,389.81500244140625,367.20001220703125)"><path stroke-linecap="round" stroke-linejoin="round" fill-opacity="0" class="primary" stroke="rgb(18,19,49)" stroke-opacity="1" stroke-width="7" d=" M-138.06500244140625,-124.37999725341797 C-138.06500244140625,-124.37999725341797 -41.944000244140625,-124.22000122070312 -41.944000244140625,-124.22000122070312 C-41.944000244140625,-124.22000122070312 0,-29.576000213623047 0,-29.576000213623047 C0,-29.576000213623047 -279.6289978027344,-29.576000213623047 -279.6289978027344,-29.576000213623047 C-279.6289978027344,-29.576000213623047 -237.68499755859375,-124.22000122070312 -237.68499755859375,-124.22000122070312 C-237.68499755859375,-124.22000122070312 -138.81500244140625,-124.37999725341797 -138.81500244140625,-124.37999725341797 M-279.6289978027344,-30.624000549316406 C-279.6289978027344,-30.624000549316406 -279.6289978027344,28.527999877929688 -279.6289978027344,28.527999877929688 C-279.6289978027344,28.527999877929688 0.12200000137090683,29.027000427246094 0.12200000137090683,29.027000427246094 M0,-29.576000213623047 C0,-29.576000213623047 0,29.576000213623047 0,29.576000213623047"/></g></g><g transform="matrix(1,0,0,1,224.802001953125,139.43899536132812)" opacity="1" style="display: block;"><g opacity="1" transform="matrix(1,0,0,1,0,0)"><path class="secondary" fill="rgb(249,201,192)" fill-opacity="1" d=" M-0.7789999842643738,-35.5880012512207 C-0.7789999842643738,-35.5880012512207 -19.648000717163086,-16.65399932861328 -19.648000717163086,-16.65399932861328 C-19.648000717163086,-16.65399932861328 -39.374000549316406,24.177000045776367 -39.374000549316406,24.177000045776367 C-41.33000183105469,27.29599952697754 -40.38600158691406,31.40999984741211 -37.266998291015625,33.36600112915039 C-37.266998291015625,33.36600112915039 -37.266998291015625,33.36600112915039 -37.266998291015625,33.36600112915039 C-30.46500015258789,37.63100051879883 -21.493999481201172,35.57400131225586 -17.229000091552734,28.77199935913086 C-17.229000091552734,28.77199935913086 6.5320000648498535,5.426000118255615 6.5320000648498535,5.426000118255615 C6.5320000648498535,5.426000118255615 40.393001556396484,-6.5329999923706055 40.393001556396484,-6.5329999923706055"/></g></g><g transform="matrix(1,0,0,1,-35,-35)" opacity="1" style="display: block;"><g opacity="1" transform="matrix(1,0,0,1,314.7659912109375,139.38099670410156)"><g opacity="1" transform="matrix(1,0,0,1,0,0)"><path class="secondary" fill="rgb(249,201,192)" fill-opacity="1" d=" M-55.74300003051758,-0.5299999713897705 C-55.74300003051758,-0.5299999713897705 -26.378999710083008,-25.413000106811523 -6.769000053405762,-26.915000915527344 C-6.769000053405762,-26.915000915527344 10.206999778747559,-50.391998291015625 10.206999778747559,-50.391998291015625 C10.206999778747559,-50.391998291015625 55.74300003051758,-18.030000686645508 55.74300003051758,-18.030000686645508 C55.74300003051758,-18.030000686645508 38.744998931884766,8.656000137329102 38.744998931884766,8.656000137329102"/></g></g><g opacity="1" transform="matrix(1,0,0,1,0,0)"><path class="secondary" fill="rgb(249,201,192)" fill-opacity="1" d=" M322,125 C322,125 262.75,136 262.75,136 C262.75,136 255.75,141.75 255.75,141.75 C255.75,141.75 294.5,170 294.5,170 C294.5,170 296.0610046386719,169.14599609375 298.625,168 C303.93701171875,165.625 317,179 317,179 C317,179 353.75,148.25 353.75,148.25 C353.75,148.25 322,125 322,125z"/></g></g><g transform="matrix(1,0,0,1,247.07998657226562,99.2760009765625)" opacity="0.5" style="mix-blend-mode: multiply; display: block;"><g opacity="1" transform="matrix(1,0,0,1,0,0)"><path class="secondary" fill="rgb(249,201,192)" fill-opacity="1" d=" M42.64500045776367,-45.154998779296875 C42.64500045776367,-45.154998779296875 52.57500076293945,-38.095001220703125 52.57500076293945,-38.095001220703125 C52.57500076293945,-38.095001220703125 36.89500045776367,-16.405000686645508 36.89500045776367,-16.405000686645508 C17.28499984741211,-14.904999732971191 -12.074999809265137,9.975000381469727 -12.074999809265137,9.975000381469727 C-12.074999809265137,9.975000381469727 -30.83799934387207,29.533000946044922 -30.83799934387207,29.533000946044922 C-30.83799934387207,29.533000946044922 -56.00699996948242,74.89299774169922 -56.00699996948242,74.89299774169922 C-56.00699996948242,74.89299774169922 -64.95500183105469,71.3479995727539 -62.01300048828125,64.8499984741211 C-57.91400146484375,55.797000885009766 -43.70500183105469,27.097999572753906 -41.99300003051758,23.45199966430664 C-34.95500183105469,15.097999572753906 -23.30500030517578,4.704999923706055 -23.30500030517578,4.704999923706055 C-23.30500030517578,4.704999923706055 6.054999828338623,-20.174999237060547 25.665000915527344,-21.674999237060547 C25.665000915527344,-21.674999237060547 42.64500045776367,-45.154998779296875 42.64500045776367,-45.154998779296875z"/></g></g><g transform="matrix(1,0,0,1,224.802001953125,139.43899536132812)" opacity="1" style="display: block;"><g opacity="1" transform="matrix(1,0,0,1,0,0)"><path stroke-linecap="round" stroke-linejoin="round" fill-opacity="0" class="primary" stroke="rgb(18,19,49)" stroke-opacity="1" stroke-width="7" d=" M-0.7789999842643738,-35.5880012512207 C-0.7789999842643738,-35.5880012512207 -19.648000717163086,-16.65399932861328 -19.648000717163086,-16.65399932861328 C-19.648000717163086,-16.65399932861328 -39.374000549316406,24.177000045776367 -39.374000549316406,24.177000045776367 C-41.33000183105469,27.29599952697754 -40.38600158691406,31.40999984741211 -37.266998291015625,33.36600112915039 C-37.266998291015625,33.36600112915039 -37.266998291015625,33.36600112915039 -37.266998291015625,33.36600112915039 C-30.46500015258789,37.63100051879883 -21.493999481201172,35.57400131225586 -17.229000091552734,28.77199935913086 C-17.229000091552734,28.77199935913086 6.5320000648498535,5.426000118255615 6.5320000648498535,5.426000118255615 C6.5320000648498535,5.426000118255615 40.393001556396484,-6.5329999923706055 40.393001556396484,-6.5329999923706055"/></g></g><g transform="matrix(1,0,0,1,215,201.48500061035156)" opacity="1" style="display: block;"><g opacity="1" transform="matrix(1,0,0,1,0,0)"><path class="tertiary" fill="rgb(235,230,239)" fill-opacity="1" d=" M-60.45100021362305,57.180999755859375 C-60.45100021362305,57.180999755859375 -60.45100021362305,-57.180999755859375 -60.45100021362305,-57.180999755859375 C-60.45100021362305,-57.180999755859375 60.45100021362305,-57.180999755859375 60.45100021362305,-57.180999755859375 C60.45100021362305,-57.180999755859375 60.45100021362305,57.180999755859375 60.45100021362305,57.180999755859375"/></g><g opacity="1" transform="matrix(1,0,0,1,250,258.4630126953125)" style="mix-blend-mode: multiply;"><path class="tertiary" fill="rgb(235,230,239)" fill-opacity="0.5" d=" M-289.0159912109375,-315.5989990234375 C-289.0159912109375,-315.5989990234375 -310.38800048828125,-315.5989990234375 -310.38800048828125,-315.5989990234375 C-310.38800048828125,-315.5989990234375 -310.3169860839844,-201.2760009765625 -310.3169860839844,-201.2760009765625 C-310.3169860839844,-201.2760009765625 -290.3590087890625,-201.11500549316406 -290.3590087890625,-201.11500549316406 C-290.3590087890625,-201.11500549316406 -289.0159912109375,-315.5989990234375 -289.0159912109375,-315.5989990234375z"/></g></g><g transform="matrix(1,0,0,1,215,201.48500061035156)" opacity="1" style="display: block;"><g opacity="1" transform="matrix(1,0,0,1,0,0)"><path stroke-linecap="round" stroke-linejoin="round" fill-opacity="0" class="primary" stroke="rgb(18,19,49)" stroke-opacity="1" stroke-width="7" d=" M-60.45100021362305,57.180999755859375 C-60.45100021362305,57.180999755859375 -60.45100021362305,-57.180999755859375 -60.45100021362305,-57.180999755859375 C-60.45100021362305,-57.180999755859375 60.45100021362305,-57.180999755859375 60.45100021362305,-57.180999755859375 C60.45100021362305,-57.180999755859375 60.45100021362305,57.180999755859375 60.45100021362305,57.180999755859375"/></g></g><g transform="matrix(1,0,0,1,-35,-35)" opacity="1" style="display: block;"><g opacity="1" transform="matrix(1,0,0,1,323.06298828125,183.86599731445312)"><path class="secondary" fill="rgb(249,201,192)" fill-opacity="1" d=" M-6.875,-6.0289998054504395 C-6.875,-6.0289998054504395 -25.066999435424805,13.090999603271484 -25.066999435424805,13.090999603271484 C-29.54199981689453,18.17300033569336 -32.196998596191406,23.493000030517578 -32.196998596191406,28.67300033569336 C-32.196998596191406,31.966999053955078 -31.12299919128418,35.19599914550781 -28.77199935913086,38.284000396728516 C-26.486000061035156,41.263999938964844 -22.270999908447266,41.946998596191406 -19.172000885009766,39.8120002746582 C-19.172000885009766,39.8120002746582 6.249000072479248,22.367000579833984 6.249000072479248,22.367000579833984 C18.43899917602539,14.001999855041504 27.139999389648438,1.465000033378601 30.694000244140625,-12.881999969482422 C30.694000244140625,-12.881999969482422 33.9010009765625,-23.858999252319336 30.94300079345703,-35.00899887084961 C30.41200065612793,-37.03499984741211 29.676000595092773,-39.071998596191406 28.667999267578125,-41.05500030517578"/></g></g><g transform="matrix(1,0,0,1,-35,-35)" opacity="1" style="display: block;"><g opacity="1" transform="matrix(1,0,0,1,314.7659912109375,139.38099670410156)"><g opacity="1" transform="matrix(1,0,0,1,0,0)"><path stroke-linecap="round" stroke-linejoin="round" fill-opacity="0" class="primary" stroke="rgb(18,19,49)" stroke-opacity="1" stroke-width="7" d=" M-55.74300003051758,-0.5299999713897705 C-55.74300003051758,-0.5299999713897705 -26.378999710083008,-25.413000106811523 -6.769000053405762,-26.915000915527344 C-6.769000053405762,-26.915000915527344 10.206999778747559,-50.391998291015625 10.206999778747559,-50.391998291015625 C10.206999778747559,-50.391998291015625 55.74300003051758,-18.030000686645508 55.74300003051758,-18.030000686645508 C55.74300003051758,-18.030000686645508 38.744998931884766,8.656000137329102 38.744998931884766,8.656000137329102 M1.2489999532699585,38.2869987487793 C-8.053000450134277,29.326000213623047 -14.571000099182129,28.525999069213867 -14.571000099182129,28.525999069213867"/></g></g><g opacity="1" transform="matrix(1,0,0,1,323.06298828125,183.86599731445312)"><path stroke-linecap="round" stroke-linejoin="round" fill-opacity="0" class="primary" stroke="rgb(18,19,49)" stroke-opacity="1" stroke-width="7" d=" M-6.875,-6.0289998054504395 C-6.875,-6.0289998054504395 -25.066999435424805,13.090999603271484 -25.066999435424805,13.090999603271484 C-29.54199981689453,18.17300033569336 -32.196998596191406,23.493000030517578 -32.196998596191406,28.67300033569336 C-32.196998596191406,31.966999053955078 -31.12299919128418,35.19599914550781 -28.77199935913086,38.284000396728516 C-26.486000061035156,41.263999938964844 -22.270999908447266,41.946998596191406 -19.172000885009766,39.8120002746582 C-19.172000885009766,39.8120002746582 6.249000072479248,22.367000579833984 6.249000072479248,22.367000579833984 C18.43899917602539,14.001999855041504 27.139999389648438,1.465000033378601 30.694000244140625,-12.881999969482422 C30.694000244140625,-12.881999969482422 33.9010009765625,-23.858999252319336 30.94300079345703,-35.00899887084961 C30.41200065612793,-37.03499984741211 29.676000595092773,-39.071998596191406 28.667999267578125,-41.05500030517578"/></g></g><g transform="matrix(1,0,0,1,215,258.6659851074219)" opacity="1" style="display: block;"><g opacity="1" transform="matrix(1,0,0,1,0,0)"><path stroke-linecap="round" stroke-linejoin="round" fill-opacity="0" class="primary" stroke="rgb(18,19,49)" stroke-opacity="1" stroke-width="7" d=" M-72.69300079345703,0 C-72.69300079345703,0 72.69300079345703,0 72.69300079345703,0"/></g></g></g></g></svg>